:SAMPLES-PER-SECOND 30
:FULLY-SPECIFIED
:DEGREES
81
root  -9.10873 18.9844 3.66608 136.202 88.849 93.0454
RightUpLeg  -22.0222 13.7405 10.0461
RightLeg  87.8385 11.164 10.7146
RightFoot  -16.3987 -0.185359 -6.65039
RightToes  1.86264e-009 -3.18055e-015 8.94531e-016
Spine  51.7691 -5.35794 2.59462
Spine1  -14.2656 -3.27025 -19.4898
HEad  -61.0526 -1.98064 18.4685
LeftShoulder1  0 -2.69403e-036 -1.28585e-037
LeftArm  35.1829 -13.9551 -83.1865
LeftForeArm  0.0950351 -26.9177 20.2673
LeftHand  -3.09886 -0.529753 39.0657
RightShoulder  -2.48481e-017 0 -8.08114e-019
RightArm  -4.78815 41.936 91.6192
RightForeArm  10.8685 2.165 -7.3937
RightHand  6.5863 -19.1112 -38.3328
LeftUpLeg  -63.2208 -1.58824 9.2737
LeftLeg  121.854 -2.5963 -18.0536
LeftFoot  12.3584 -1.92665 8.58806
LeftToes  -3.27418e-010 -1.10613e-010 -1.08532e-012
82
root  -8.27277 18.7742 3.51507 77.7359 88.6594 34.9318
RightUpLeg  -18.883 13.8861 9.4616
RightLeg  84.9561 11.5043 8.96245
RightFoot  -15.9513 -0.139884 -5.87758
RightToes  1.86264e-009 -3.18055e-015 8.94531e-016
Spine  50.6817 -4.8545 1.90832
Spine1  -13.2362 -3.02853 -19.4221
HEad  -59.7646 -0.865265 17.6282
LeftShoulder1  0 -2.69403e-036 -1.28585e-037
LeftArm  29.5756 -15.6782 -82.1704
LeftForeArm  3.13415 -30.5983 21.6974
LeftHand  -3.01112 -0.44563 38.5555
RightShoulder  -2.48481e-017 0 -8.08114e-019
RightArm  -5.10013 40.2929 93.7909
RightForeArm  13.2208 2.2179 -7.00516
RightHand  6.8829 -19.3789 -39.5295
LeftUpLeg  -65.8309 -1.39319 8.22779
LeftLeg  123.997 -1.97724 -17.6746
LeftFoot  13.9414 -1.70128 7.16026
LeftToes  -3.27418e-010 -1.10613e-010 -1.08532e-012
83
root  -7.37332 18.5344 3.29739 55.9455 87.1816 13.0394
RightUpLeg  -16.3753 13.601 8.25076
RightLeg  82.05 11.6345 6.81142
RightFoot  -15.4651 -0.103914 -5.34066
RightToes  1.86264e-009 -3.18055e-015 8.94531e-016
Spine  49.7715 -4.55238 1.05367
Spine1  -12.9628 -3.15207 -19.2736
HEad  -58.8106 0.361005 16.9149
LeftShoulder1  0 -2.69403e-036 -1.28585e-037
LeftArm  26.1324 -19.1299 -80.8881
LeftForeArm  4.06324 -33.743 23.1744
LeftHand  -2.82743 -0.296462 37.2683
RightShoulder  -2.48481e-017 0 -8.08114e-019
RightArm  -5.54551 38.1391 96.0712
RightForeArm  15.7642 2.67053 -6.51895
RightHand  7.21649 -19.6943 -40.758
LeftUpLeg  -66.2958 -1.33235 6.50089
LeftLeg  124.502 -2.1986 -17.0699
LeftFoot  15.6601 -1.72321 6.80256
LeftToes  -3.27418e-010 -1.10613e-010 -1.08532e-012
84
root  -6.41576 18.2903 3.03065 51.6852 85.4502 8.1076
RightUpLeg  -14.5143 13.529 6.54387
RightLeg  78.8611 11.5166 4.28937
RightFoot  -14.7478 -0.0654693 -4.90308
RightToes  1.86264e-009 -3.18055e-015 8.94531e-016
Spine  48.8756 -4.15449 -0.289581
Spine1  -13.3101 -3.44009 -18.8238
HEad  -58.1619 1.89873 15.8287
LeftShoulder1  0 -2.69403e-036 -1.28585e-037
LeftArm  23.4988 -23.8372 -79.0081
LeftForeArm  4.08341 -35.9353 24.2502
LeftHand  -2.53681 -0.0937182 34.9061
RightShoulder  -2.48481e-017 0 -8.08114e-019
RightArm  -5.93175 35.7505 98.37
RightForeArm  18.5785 3.54463 -5.78031
RightHand  7.51105 -19.9708 -41.7892
LeftUpLeg  -64.8546 -1.16316 4.28128
LeftLeg  123.369 -2.88425 -16.7365
LeftFoot  17.9928 -1.53401 5.67698
LeftToes  -3.27418e-010 -1.10613e-010 -1.08532e-012
85
root  -5.37261 18.1069 2.75902 61.8783 83.7711 17.0876
RightUpLeg  -13.094 12.309 3.825
RightLeg  74.9732 11.2091 2.02029
RightFoot  -13.1908 0.00208141 -5.00762
RightToes  1.86264e-009 -3.18055e-015 8.94531e-016
Spine  47.8733 -3.8532 -2.91087
Spine1  -13.8886 -4.48256 -16.3718
HEad  -57.6611 3.776 14.0341
LeftShoulder1  0 -2.69403e-036 -1.28585e-037
LeftArm  20.709 -29.3548 -76.2798
LeftForeArm  3.04616 -36.6265 24.5464
LeftHand  -2.26708 0.12439 32.7655
RightShoulder  -2.48481e-017 0 -8.08114e-019
RightArm  -5.47415 33.6454 101.068
RightForeArm  21.6628 4.02754 -4.49483
RightHand  7.84718 -20.3008 -42.851
LeftUpLeg  -62.8584 -1.84369 1.08685
LeftLeg  121.142 -4.0042 -16.2744
LeftFoot  19.5765 -0.64328 2.37579
LeftToes  -3.27418e-010 -1.10613e-010 -1.08532e-012
86
root  -4.2763 17.9555 2.49782 85.5017 82.0736 39.4058
RightUpLeg  -11.5772 8.156 0.252037
RightLeg  70.7389 10.9523 0.871369
RightFoot  -11.0662 0.108581 -5.719
RightToes  1.86264e-009 -3.18055e-015 8.94531e-016
Spine  47.202 -4.06337 -6.34772
Spine1  -14.7028 -6.58067 -10.5213
HEad  -57.1531 5.58549 11.8792
LeftShoulder1  0 -2.69403e-036 -1.28585e-037
LeftArm  17.7078 -35.6056 -73.3078
LeftForeArm  1.01861 -34.8043 23.5101
LeftHand  -2.08895 0.323106 31.5667
RightShoulder  -2.48481e-017 0 -8.08114e-019
RightArm  -4.25817 31.718 103.456
RightForeArm  24.8501 4.36522 -2.85746
RightHand  8.23653 -20.6817 -44.0119
LeftUpLeg  -60.8119 -4.35331 -2.83496
LeftLeg  118.736 -5.19701 -15.6258
LeftFoot  19.5012 -0.261117 1.08118
LeftToes  -3.27418e-010 -1.10613e-010 -1.08532e-012
87
root  -3.24748 17.8246 2.23594 107.453 80.0355 60.2767
RightUpLeg  -10.1538 2.5444 -2.93576
RightLeg  67.2822 10.9469 0.855602
RightFoot  -8.4481 0.256033 -6.13715
RightToes  1.86264e-009 -3.18055e-015 8.94531e-016
Spine  47.1508 -4.61706 -8.91635
Spine1  -15.8354 -8.69911 -3.58572
HEad  -56.6988 6.91146 9.97473
LeftShoulder1  0 -2.69403e-036 -1.28585e-037
LeftArm  16.808 -42.6323 -71.328
LeftForeArm  -2.38552 -29.7139 21.3231
LeftHand  -1.92917 0.500793 30.4046
RightShoulder  -2.48481e-017 0 -8.08114e-019
RightArm  -3.40477 29.6799 104.211
RightForeArm  27.8283 5.41927 -1.52754
RightHand  8.54254 -20.9553 -44.9609
LeftUpLeg  -58.774 -7.81243 -6.06444
LeftLeg  116.782 -5.99186 -15.2627
LeftFoot  18.1797 -0.740263 2.83009
LeftToes  -3.27418e-010 -1.10613e-010 -1.08532e-012
